<svg xmlns="http://www.w3.org/2000/svg"  viewBox="0 0 100 100" width="100px" height="100px" baseProfile="basic"><path fill="#3a83c1" d="M39.665,78c-1.049,0-1.934-0.361-2.628-1.073C36.348,76.219,36,75.408,36,74.517 c0-0.513,0.126-0.999,0.376-1.449l20.851-49.249C57.762,22.638,58.789,22,60.13,22c0.903,0,1.762,0.306,2.553,0.908 C63.545,23.568,64,24.481,64,25.551c0,0.538-0.097,1.034-0.29,1.473L42.91,76.115c-0.287,0.632-0.749,1.107-1.382,1.437 C40.949,77.85,40.323,78,39.665,78z"/><path fill="#40a6dd" d="M70.845,66c-0.897,0-1.763-0.368-2.574-1.095c-0.789-0.707-1.239-1.668-1.269-2.707 c-0.044-1.555,0.655-2.329,1.28-2.709l12.095-9.487l-12.145-9.47C67.713,40.207,67,39.45,67,38.002c0-1.173,0.427-2.15,1.27-2.906 C69.083,34.368,69.949,34,70.845,34c0.632,0,1.146,0.153,1.528,0.456l15.908,12.321c0.55,0.399,0.992,0.919,1.286,1.525 C89.854,48.901,90,49.481,90,50.029c0,0.552-0.146,1.133-0.433,1.727c-0.305,0.63-0.764,1.141-1.364,1.521L72.364,65.551 C71.991,65.847,71.477,66,70.845,66z"/><path fill="#40a6dd" d="M29.155,66c-0.632,0-1.146-0.153-1.528-0.456L11.719,53.223c-0.522-0.326-0.981-0.837-1.286-1.465 C10.146,51.162,10,50.581,10,50.029c0-0.548,0.146-1.128,0.432-1.724c0.296-0.609,0.737-1.129,1.313-1.547l15.892-12.31 C28.009,34.153,28.523,34,29.155,34c0.896,0,1.761,0.368,2.574,1.096C32.573,35.852,33,36.829,33,38.002 c0,1.448-0.713,2.205-1.311,2.585l-12.067,9.415l12.095,9.487c0.625,0.38,1.324,1.154,1.28,2.709c-0.03,1.039-0.48,2-1.269,2.707 C30.918,65.632,30.052,66,29.155,66z"/><g><path fill="#1f212b" d="M71.5,63.145c-0.15,0-0.298-0.067-0.397-0.195c-0.168-0.219-0.127-0.533,0.092-0.701l8-6.145 c0.22-0.167,0.534-0.126,0.701,0.092c0.168,0.219,0.127,0.533-0.092,0.701l-8,6.145C71.714,63.11,71.606,63.145,71.5,63.145z"/><path fill="#1f212b" d="M81.314,55.607c-0.15,0-0.298-0.067-0.397-0.195c-0.168-0.219-0.127-0.533,0.092-0.701l0.958-0.736 c0.22-0.167,0.533-0.126,0.701,0.092c0.168,0.219,0.127,0.533-0.092,0.701l-0.958,0.736C81.527,55.573,81.42,55.607,81.314,55.607z"/><path fill="#1f212b" d="M27.1,38.931c-0.15,0-0.299-0.067-0.397-0.195c-0.168-0.219-0.127-0.533,0.092-0.701l1.4-1.075 c0.22-0.167,0.534-0.126,0.701,0.092c0.168,0.219,0.127,0.533-0.092,0.701l-1.4,1.075C27.313,38.896,27.206,38.931,27.1,38.931z"/><path fill="#1f212b" d="M17.729,46.129c-0.15,0-0.298-0.067-0.397-0.195c-0.168-0.219-0.127-0.533,0.092-0.701l7.649-5.875 c0.22-0.167,0.534-0.126,0.701,0.092c0.168,0.219,0.127,0.533-0.092,0.701l-7.649,5.875C17.942,46.095,17.835,46.129,17.729,46.129 z"/><path fill="#1f212b" d="M39.665,79c-1.31,0-2.466-0.476-3.344-1.375C35.444,76.724,35,75.678,35,74.517 c0-0.665,0.16-1.299,0.475-1.885l20.832-49.203C57.008,21.877,58.398,21,60.13,21c1.126,0,2.189,0.374,3.159,1.112 C64.393,22.958,65,24.179,65,25.551c0,0.679-0.126,1.31-0.374,1.874l-20.795,49.08c-0.388,0.856-1.004,1.499-1.842,1.935 C41.264,78.812,40.484,79,39.665,79z M60.13,23c-0.952,0-1.622,0.414-1.991,1.23L37.297,73.457 c-0.014,0.033-0.029,0.064-0.047,0.096C37.082,73.856,37,74.172,37,74.517c0,0.631,0.247,1.191,0.753,1.713 C38.259,76.748,38.885,77,39.665,77c0.497,0,0.97-0.113,1.405-0.337c0.433-0.226,0.738-0.54,0.929-0.961L62.79,26.633 c0.142-0.321,0.21-0.682,0.21-1.082c0-0.757-0.311-1.379-0.925-1.849C61.464,23.237,60.809,23,60.13,23z"/><path fill="#1f212b" d="M70.845,67c-1.151,0-2.241-0.454-3.241-1.35c-0.995-0.893-1.563-2.108-1.601-3.424 c-0.06-2.101,1.018-3.122,1.706-3.558l11.046-8.665l-11.1-8.654C67.12,41,66,40.026,66,38.002c0-1.448,0.554-2.711,1.603-3.65 C68.605,33.454,69.696,33,70.845,33c0.863,0,1.586,0.227,2.149,0.672l15.899,12.314c0.659,0.478,1.211,1.135,1.573,1.88 C90.821,48.604,91,49.331,91,50.029c0,0.704-0.179,1.432-0.532,2.162c-0.388,0.8-0.969,1.448-1.73,1.93l-15.761,12.22 C72.428,66.776,71.708,67,70.845,67z M70.845,35c-0.642,0-1.284,0.283-1.908,0.841C68.307,36.406,68,37.113,68,38.002 c0,1.049,0.478,1.504,0.763,1.683c0.029,0.019,0.057,0.038,0.084,0.059l12.145,9.47c0.243,0.189,0.385,0.479,0.385,0.788 c0,0.308-0.141,0.598-0.383,0.788l-12.095,9.487c-0.031,0.024-0.064,0.047-0.098,0.067c-0.563,0.343-0.825,0.939-0.8,1.826 c0.022,0.762,0.354,1.469,0.937,1.991C69.56,64.718,70.202,65,70.845,65c0.396,0,0.706-0.081,0.898-0.233l15.847-12.28 c0.519-0.334,0.855-0.708,1.077-1.166C88.888,50.863,89,50.43,89,50.029c0-0.396-0.112-0.832-0.334-1.294 c-0.22-0.453-0.548-0.841-0.972-1.148l-15.933-12.34C71.551,35.081,71.246,35,70.845,35z"/><path fill="#1f212b" d="M29.155,67c-0.863,0-1.586-0.227-2.149-0.672L11.144,54.042c-0.67-0.432-1.241-1.086-1.611-1.848 C9.179,51.461,9,50.732,9,50.029c0-0.698,0.178-1.424,0.53-2.156c0.37-0.762,0.916-1.407,1.626-1.923l15.867-12.292 C27.572,33.224,28.292,33,29.155,33c1.149,0,2.24,0.454,3.241,1.351C33.445,35.291,34,36.554,34,38.002 c0,1.484-0.63,2.702-1.774,3.429l-10.981,8.573l11.047,8.665c0.688,0.436,1.765,1.457,1.706,3.558 c-0.038,1.315-0.606,2.531-1.601,3.423C31.396,66.546,30.306,67,29.155,67z M29.155,35c-0.396,0-0.706,0.081-0.898,0.233 l-15.9,12.316c-0.466,0.339-0.802,0.733-1.025,1.192C11.112,49.198,11,49.633,11,50.029c0,0.399,0.112,0.835,0.333,1.294 c0.215,0.443,0.541,0.817,0.916,1.051c0.028,0.019,0.056,0.037,0.083,0.058l15.908,12.321C28.449,64.919,28.754,65,29.155,65 c0.643,0,1.285-0.282,1.906-0.84c0.583-0.521,0.915-1.229,0.937-1.99c0.025-0.887-0.237-1.483-0.8-1.826 c-0.034-0.021-0.066-0.043-0.098-0.067l-12.095-9.487c-0.242-0.19-0.383-0.48-0.383-0.788s0.143-0.599,0.385-0.787l12.067-9.415 C31.715,39.386,32,38.8,32,38.002c0-0.889-0.307-1.596-0.938-2.161C30.439,35.283,29.797,35,29.155,35z"/></g></svg>