<svg xmlns="http://www.w3.org/2000/svg"  viewBox="0 0 24 24" width="24px" height="24px"><path fill="#303C42" d="M17.4609375,1.3232422c-0.1923828-0.0981445-0.4287109-0.0629883-0.5820313,0.0913086 c-0.1533203,0.1533203-0.1904297,0.3881836-0.0917969,0.581543C17.5917969,3.5668945,18,5.2504883,18,7 c0,6.0654297-4.9345703,11-11,11c-1.75,0-3.4335938-0.4082031-5.0048828-1.2128906 C1.8027344,16.6875,1.5673828,16.7241211,1.4140625,16.878418c-0.1533203,0.1533203-0.1904297,0.3881836-0.0917969,0.581543 C3.3896484,21.4941406,7.4814453,24,12,24c6.6171875,0,12-5.3833008,12-12C24,7.4814453,21.4941406,3.3901367,17.4609375,1.3232422 z"/><path fill="#FFF4D4" d="M12,23c-3.6298828,0-6.9599609-1.7646484-9.0029297-4.690918C4.2802734,18.7680664,5.6210938,19,7,19 c6.6171875,0,12-5.3833008,12-12c0-1.378418-0.2314453-2.71875-0.6904297-4.0024414C21.2353516,5.0410156,23,8.3701172,23,12 C23,18.0654297,18.0654297,23,12,23z"/><path d="M19.9902344,4.4667969c0.9644775,1.6489258,1.5126953,3.5421753,1.5126953,5.5356445 c0,6.0654297-4.9345703,11-11,11c-2.6181641,0-5.0721436-0.9291992-7.0078735-2.5390015 c-0.1660156-0.0512695-0.3338013-0.0956421-0.4979858-0.1543579C5.0400391,21.2353516,8.3701172,23,12,23 c6.0654297,0,11-4.9345703,11-11C23,9.137146,21.8894653,6.47229,19.9902344,4.4667969z" opacity=".1"/><path fill="#303C42" d="M5.5,5C7.4296875,5,9,6.5703125,9,8.5C9,8.7763672,9.2236328,9,9.5,9S10,8.7763672,10,8.5 C10,6.5703125,11.5703125,5,13.5,5C13.7763672,5,14,4.7763672,14,4.5S13.7763672,4,13.5,4C11.5703125,4,10,2.4296875,10,0.5 C10,0.2236328,9.7763672,0,9.5,0S9,0.2236328,9,0.5C9,2.4296875,7.4296875,4,5.5,4C5.2236328,4,5,4.2236328,5,4.5 S5.2236328,5,5.5,5z"/><path fill="#FFCA28" d="M9.5,2.5605469C9.9296875,3.390625,10.609375,4.0708008,11.4394531,4.5 C10.609375,4.9291992,9.9296875,5.609375,9.5,6.4394531C9.0703125,5.609375,8.390625,4.9291992,7.5605469,4.5 C8.390625,4.0708008,9.0703125,3.390625,9.5,2.5605469z"/><path fill="#303C42" d="M3,14.5C3,14.7763672,3.2236328,15,3.5,15S4,14.7763672,4,14.5C4,13.121582,5.1210938,12,6.5,12 C6.7763672,12,7,11.7763672,7,11.5S6.7763672,11,6.5,11C5.1210938,11,4,9.878418,4,8.5C4,8.2236328,3.7763672,8,3.5,8 S3,8.2236328,3,8.5C3,9.878418,1.8789063,11,0.5,11C0.2236328,11,0,11.2236328,0,11.5S0.2236328,12,0.5,12 C1.8789063,12,3,13.121582,3,14.5z"/><path fill="#FFCA28" d="M3.5,10.3012695C3.7958984,10.7915039,4.2080078,11.2045898,4.6992188,11.5 C4.2080078,11.7954102,3.7958984,12.2084961,3.5,12.6987305C3.2041016,12.2084961,2.7919922,11.7954102,2.3007813,11.5 C2.7919922,11.2045898,3.2041016,10.7915039,3.5,10.3012695z"/><linearGradient id="q7gBJmlARY3OaA020Zwb8a" x1="1.905" x2="22.871" y1="7.303" y2="17.08" gradientUnits="userSpaceOnUse"><stop offset="0" stop-color="#fff" stop-opacity=".2"/><stop offset="1" stop-color="#fff" stop-opacity="0"/></linearGradient><path fill="url(#q7gBJmlARY3OaA020Zwb8a)" d="M17.4609375,1.3232422c-0.1923828-0.0981445-0.4287109-0.0629883-0.5820313,0.0913086 c-0.1533203,0.1533203-0.1904297,0.3881836-0.0917969,0.581543C17.5917969,3.5668945,18,5.2504883,18,7 c0,6.0654297-4.9345703,11-11,11c-1.75,0-3.4335938-0.4082031-5.0048828-1.2128906 C1.8027344,16.6875,1.5673828,16.7241211,1.4140625,16.878418c-0.1533203,0.1533203-0.1904297,0.3881836-0.0917969,0.581543 C3.3896484,21.4941406,7.4814453,24,12,24c6.6171875,0,12-5.3833008,12-12C24,7.4814453,21.4941406,3.3901367,17.4609375,1.3232422 z M5.5,5C7.4296875,5,9,6.5703125,9,8.5C9,8.7763672,9.2236328,9,9.5,9S10,8.7763672,10,8.5C10,6.5703125,11.5703125,5,13.5,5 C13.7763672,5,14,4.7763672,14,4.5S13.7763672,4,13.5,4C11.5703125,4,10,2.4296875,10,0.5C10,0.2236328,9.7763672,0,9.5,0 S9,0.2236328,9,0.5C9,2.4296875,7.4296875,4,5.5,4C5.2236328,4,5,4.2236328,5,4.5S5.2236328,5,5.5,5z M3,14.5 C3,14.7763672,3.2236328,15,3.5,15S4,14.7763672,4,14.5C4,13.121582,5.1210938,12,6.5,12C6.7763672,12,7,11.7763672,7,11.5 S6.7763672,11,6.5,11C5.1210938,11,4,9.878418,4,8.5C4,8.2236328,3.7763672,8,3.5,8S3,8.2236328,3,8.5 C3,9.878418,1.8789063,11,0.5,11C0.2236328,11,0,11.2236328,0,11.5S0.2236328,12,0.5,12C1.8789063,12,3,13.121582,3,14.5z"/></svg>